<svg xmlns="http://www.w3.org/2000/svg" width="511.122" height="336.489" viewBox="0 0 511.122 336.489">
  <g id="undraw_Profile_data_re_v81r" transform="translate(-0.011 0)" opacity="0.5">
    <path id="Caminho_149" data-name="Caminho 149" d="M447.589,276.978q-.884,4.646-2.119,9.2c-.089.352-.189.7-.289,1.052H433.722a3.685,3.685,0,0,0-3.681,3.681v32.666c-.347.647-.7,1.288-1.052,1.93-1.819,3.313-3.713,6.589-5.648,9.823A373.429,373.429,0,0,1,295.2,463.4l3.113-7.025-3.429-.237c-24.846-1.7-49.777-3.581-74.04-9.166-25.383-5.842-50.213-15.975-70.106-32.776s-34.485-40.806-36.51-66.772a76.187,76.187,0,0,1,2.666-26.508c4.664-16.575,14.855-31.488,29.558-40.312,23.1-13.856,53.221-11.032,77.568.494s44.156,30.594,63.5,49.335A245.267,245.267,0,0,0,208.164,247.6c-10.812-6.92-22.285-13.083-31.477-22.049s-15.965-21.523-14.34-34.254c1.846-14.44,13.672-25.4,25.519-33.849,4.733-3.376,9.618-6.578,14.655-9.523,14.214-8.329,29.59-14.613,45.828-16.943,22-3.16,45.754,1.635,62.618,16.107,19,16.307,26.792,42.6,26.051,67.761,11.705-17.017,29.758-30.042,50.145-30.594,21.165-.568,41.285,12.8,51.886,31.136S451.549,256.18,447.589,276.978Z" transform="translate(-113.998 -130.052)" fill="#e6e6e6"/>
    <path id="Caminho_150" data-name="Caminho 150" d="M492.928,403.368c12.4-1.092,23.848-2.367,35.861-5.766,11.644-3.295,22.849-8.811,31.138-17.817,8.916-9.687,13.728-22.267,17.124-34.791,1.893-6.982,3.449-14.062,4.917-21.145q2.389-11.527,4.245-23.155,3.7-23.147,5.276-46.566.191-2.843.35-5.687c.066-1.17-1.754-1.166-1.82,0q-1.3,23.085-4.672,45.99c-2.219,15-5.059,29.94-8.662,44.674-3.052,12.482-7,25.158-14.832,35.549-7.341,9.744-17.943,16.111-29.391,19.918-11.649,3.874-23.931,5.421-36.1,6.571-1.493.141-1.936.276-3.43.407-1.157.1-1.168,1.922,0,1.819Z" transform="translate(-293.248 -185.771)" fill="#fff"/>
    <path id="Caminho_151" data-name="Caminho 151" d="M120.7,493.919a197.2,197.2,0,0,1,46.117,8.127,199.3,199.3,0,0,1,42.949,18.695,194.439,194.439,0,0,1,36.168,27.232,199.228,199.228,0,0,1,28.252,33.687A197.249,197.249,0,0,1,294.4,620.852q.961,2.53,1.851,5.085c.383,1.1,2.142.626,1.754-.484A199.111,199.111,0,0,0,278.7,585.285a201.7,201.7,0,0,0-27.713-34.912A196.649,196.649,0,0,0,215.6,522.139a200.831,200.831,0,0,0-89.17-29.645q-2.864-.24-5.734-.395c-1.17-.064-1.166,1.756,0,1.819Z" transform="translate(-116.755 -301.716)" fill="#fff"/>
    <path id="Caminho_152" data-name="Caminho 152" d="M282.7,166.47a107.167,107.167,0,0,1,28.134,13.748,132.119,132.119,0,0,1,24.017,21.329,176.817,176.817,0,0,1,19.888,27.408A233.827,233.827,0,0,1,370.546,261.1a290.889,290.889,0,0,1,11.515,34.966,326.8,326.8,0,0,1,7.363,36.533,326.148,326.148,0,0,1,3.17,36.741,291.057,291.057,0,0,1-1.041,35.245,224.494,224.494,0,0,1-5.292,32.448,153.316,153.316,0,0,1-9.547,28.058q-1.418,3.071-3.009,6.058c-.55,1.033,1.02,1.953,1.571.918a140.248,140.248,0,0,0,10.745-27.044,209.437,209.437,0,0,0,6.408-31.814,276.792,276.792,0,0,0,2.117-35.174,322.712,322.712,0,0,0-2.2-36.961,332.925,332.925,0,0,0-6.41-36.931,301.37,301.37,0,0,0-10.717-35.968,250.267,250.267,0,0,0-14.9-33.1,191.881,191.881,0,0,0-19.11-28.843A142.286,142.286,0,0,0,317.857,183.1a112.892,112.892,0,0,0-27.379-15.793q-3.6-1.433-7.3-2.592c-1.12-.352-1.6,1.4-.484,1.755Z" transform="translate(-193.68 -146.466)" fill="#fff"/>
    <ellipse id="Elipse_28" data-name="Elipse 28" cx="130.148" cy="5.259" rx="130.148" ry="5.259" transform="translate(66.79 325.972)" fill="#e6e6e6"/>
    <path id="Caminho_153" data-name="Caminho 153" d="M676.461,442.9a5.541,5.541,0,0,0-.126.862l-22.589,13.032-5.491-3.161-5.853,7.663,11.746,8.372,25.771-20.331a5.519,5.519,0,1,0-3.458-6.437Z" transform="translate(-364.535 -276.368)" fill="#ffb8b8"/>
    <path id="Caminho_154" data-name="Caminho 154" d="M606.687,450.479l17.786,12.677,7.955-9.974-17.29-13.874a7.007,7.007,0,0,0-10.091,1.4h0a7.007,7.007,0,0,0,1.639,9.772Z" transform="translate(-346.207 -275.955)"/>
    <path id="Caminho_155" data-name="Caminho 155" d="M425.519,585.267l6.237,1.634,9.271-23.276-9.2-2.412Z" transform="translate(-201.754 -266.099)" fill="#ffb8b8"/>
    <path id="Caminho_156" data-name="Caminho 156" d="M0,0H20.261V7.828H7.828A7.828,7.828,0,0,1,0,0H0Z" transform="matrix(-0.967, -0.253, 0.253, -0.967, 240.511, 329.746)" fill="#2f2e41"/>
    <path id="Caminho_157" data-name="Caminho 157" d="M527,591.82l6.346-1.134-1.352-25.018-9.366,1.673Z" transform="translate(-247.798 -268.211)" fill="#ffb8b8"/>
    <path id="Caminho_158" data-name="Caminho 158" d="M0,0H20.261V7.828H7.828A7.828,7.828,0,0,1,0,0H0Z" transform="translate(298.837 326.183) rotate(169.872)" fill="#2f2e41"/>
    <path id="Caminho_159" data-name="Caminho 159" d="M611.19,394.133c1.564.381,2.836,1.974,3.6,3.82a26.648,26.648,0,0,1,1.422,6c.6,3.816,1.177,7.947-.065,11.481-1.455,4.142-5.333,6.312-8.7,5.292s-6.039-4.847-6.953-9.252a22.406,22.406,0,0,1,1.538-13.191c.956-2.175,2.273-4.182,4.023-5.164a3.97,3.97,0,0,1,5.294,1.1" transform="translate(-344.485 -254.515)" fill="#2f2e41"/>
    <path id="Caminho_160" data-name="Caminho 160" d="M590.35,526.948l12.082,108.217-9.979,3.789-18.4-72.567-25.624,66.351-10.923.607S552.489,530.1,563.6,527.757Z" transform="translate(-314.797 -318.24)" fill="#2f2e41"/>
    <circle id="Elipse_29" data-name="Elipse 29" cx="12.915" cy="12.915" r="12.915" transform="translate(252.489 127.598)" fill="#ffb8b8"/>
    <path id="Caminho_161" data-name="Caminho 161" d="M607.631,430.486l-13.957-1.82s-9.1,10.923-8.5,29.734-1.517,24.576-1.517,24.576l29.1.526C608.555,477.718,626.151,444.5,607.631,430.486Z" transform="translate(-336.683 -271.64)"/>
    <path id="Caminho_162" data-name="Caminho 162" d="M615.4,511.849a5.542,5.542,0,0,0-.868.075l-17.855-19.007,1.82-6.068-8.8-3.944-5.462,13.35,25.689,20.434a5.519,5.519,0,1,0,5.475-4.839Z" transform="translate(-336.957 -297.357)" fill="#ffb8b8"/>
    <path id="Caminho_163" data-name="Caminho 163" d="M598.855,442.264l-8.27,20.215,11.53,5.461,9.548-20.006a7.007,7.007,0,0,0-3.67-9.5h0a7.006,7.006,0,0,0-9.138,3.832Z" transform="translate(-339.966 -276.022)"/>
    <path id="Caminho_164" data-name="Caminho 164" d="M593.655,394.656c2.024-1.167,2.24-3.984,1.965-6.3s-.734-4.906.629-6.8c1.628-2.264,4.9-2.309,7.685-2.383s6.182-.89,6.9-3.583a4.8,4.8,0,0,0-2.009-4.806,14.1,14.1,0,0,0-5.08-2.08c-3.986-1.05-8.1-2.109-12.182-1.532a15.531,15.531,0,0,0-13.232,17.343c.661,5.18,1.619,7.442.99,9.726-1.171,4.254-6.221,6.987-6.322,11.4-.079,3.451,2.969,6.113,5.943,7.865a19.949,19.949,0,0,0,7.623,2.894,9.719,9.719,0,0,0,7.67-2.14c2.612-2.376,3.258-6.346,2.509-9.8s-2.67-6.515-4.57-9.491" transform="translate(-331.629 -242.401)" fill="#2f2e41"/>
    <path id="Caminho_165" data-name="Caminho 165" d="M904.409,426.948H717.733A4.74,4.74,0,0,0,713,431.681V551.574a4.74,4.74,0,0,0,4.733,4.733H904.409a4.74,4.74,0,0,0,4.733-4.733V431.681A4.74,4.74,0,0,0,904.409,426.948Zm3.681,124.626a3.685,3.685,0,0,1-3.681,3.681H717.733a3.685,3.685,0,0,1-3.681-3.681V431.681A3.685,3.685,0,0,1,717.733,428H904.409a3.685,3.685,0,0,1,3.681,3.681Z" transform="translate(-398.009 -270.825)" fill="#3f3d56"/>
    <path id="Caminho_166" data-name="Caminho 166" d="M767.194,505.83H737.747a4.475,4.475,0,0,1-4.47-4.47V471.913a4.475,4.475,0,0,1,4.47-4.47h29.448a4.475,4.475,0,0,1,4.47,4.47V501.36A4.475,4.475,0,0,1,767.194,505.83Z" transform="translate(-407.624 -290.026)"/>
    <path id="Caminho_167" data-name="Caminho 167" d="M904.65,593.789H737.431a3.418,3.418,0,1,1,0-6.836h167.22a3.418,3.418,0,0,1,0,6.836Z" transform="translate(-407.973 -346.692)" fill="#ccc"/>
    <path id="Caminho_168" data-name="Caminho 168" d="M904.868,562.289H737.648a3.418,3.418,0,1,1,0-6.836h167.22a3.418,3.418,0,1,1,0,6.836Z" transform="translate(-408.076 -331.756)" fill="#ccc"/>
    <path id="Caminho_169" data-name="Caminho 169" d="M876.36,519.279H851.645a3.418,3.418,0,0,1,0-6.836H876.36a3.418,3.418,0,1,1,0,6.836Z" transform="translate(-462.127 -311.363)" fill="#ccc"/>
    <path id="Caminho_170" data-name="Caminho 170" d="M958.921,487.289H851.648a3.418,3.418,0,0,1,0-6.836H958.921a3.418,3.418,0,0,1,0,6.836Z" transform="translate(-462.129 -296.195)" fill="#ccc"/>
    <path id="Caminho_171" data-name="Caminho 171" d="M818,625.789H737.431a3.418,3.418,0,1,1,0-6.836H818a3.418,3.418,0,0,1,0,6.836Z" transform="translate(-407.973 -361.864)" fill="#ccc"/>
  </g>
</svg>